<svg width="878" height="993" viewBox="0 0 878 993" fill="none" xmlns="http://www.w3.org/2000/svg">
<path d="M274.908 389.284C168.54 398.884 57.5643 384.292 -43.8117 360.484C-106.404 345.892 -159.78 326.692 -212.772 273.7C-241.572 244.9 -251.556 181.924 -231.972 143.14C-212.772 99.7485 -164.388 65.9565 -130.596 56.3565C-96.8037 46.3725 -58.0197 17.1885 -43.8117 -21.2115C-29.2197 -59.9955 9.5643 -122.588 57.5643 -142.172C100.956 -161.372 153.948 -147.164 202.332 -98.7795C255.324 -40.7955 260.316 12.1964 279.516 94.3724C298.716 176.548 308.316 268.324 294.108 379.3C255.324 355.108 236.124 335.908 207.324 306.724C183.132 277.924 158.94 258.34 110.94 214.948C154.332 263.332 173.532 292.132 197.724 316.324C212.316 340.9 236.508 360.1 274.908 389.284Z" stroke="#285430" stroke-width="3.84"/>
<path d="M284.508 437.284C284.508 543.652 260.316 654.628 226.524 751.012C207.324 813.604 183.132 866.98 125.148 910.372C91.3563 939.172 33.3724 939.172 -10.0196 919.972C-48.8036 895.78 -77.6036 847.396 -87.2036 813.604C-92.1956 779.812 -120.996 741.028 -154.788 721.828C-193.572 702.628 -251.172 663.844 -265.764 610.852C-280.356 567.46 -260.772 514.468 -207.78 470.692C-145.188 422.308 -91.8116 422.308 -9.63565 412.708C72.5403 398.116 164.316 398.116 275.292 427.3C251.1 466.084 226.908 480.292 198.108 504.484C169.308 523.684 149.724 547.876 96.7323 591.268C149.724 552.484 178.908 533.284 207.708 514.084C231.516 490.66 255.708 466.468 284.508 437.284Z" stroke="#285430" stroke-width="3.84"/>
<path d="M332.892 418.084C439.26 423.076 550.236 456.868 646.62 495.268C704.604 519.46 757.596 543.652 800.988 606.244C825.18 640.036 825.18 702.628 800.988 741.412C776.796 780.196 723.804 808.996 690.012 808.996C651.228 813.988 612.828 837.796 593.628 871.588C569.436 910.372 526.044 963.364 473.052 977.956C424.668 987.556 376.668 968.356 337.884 915.364C294.492 847.78 294.492 794.788 289.5 712.612C284.508 630.436 284.508 538.66 318.3 427.684C352.092 456.484 371.292 480.676 390.876 509.86C410.46 539.044 429.66 562.852 473.052 616.228C439.26 558.244 420.06 534.052 400.476 500.26C386.268 476.068 362.076 451.876 332.892 418.084Z" stroke="#285430" stroke-width="3.84"/>
<path d="M318.3 374.692C313.308 268.324 337.5 157.348 366.684 55.9725C385.884 -6.61955 405.468 -59.9955 463.068 -108.38C496.86 -137.18 554.844 -142.172 598.236 -122.972C641.628 -103.772 670.812 -50.3955 680.412 -16.6035C690.012 17.1885 714.204 55.9725 752.988 75.1725C791.772 94.3725 849.372 133.156 868.956 186.148C883.548 229.54 868.956 287.524 815.964 326.308C753.372 374.692 699.996 379.3 617.82 393.892C535.644 408.484 443.868 413.092 332.892 388.9C357.084 350.116 376.284 330.916 410.076 306.724C438.876 282.532 458.46 263.332 506.46 214.948C453.468 253.732 429.276 277.54 400.092 297.124C366.684 316.708 347.484 340.9 318.3 374.692Z" stroke="#285430" stroke-width="3.84"/>
</svg>
